<svg width="91" height="25" viewBox="0 0 91 25" fill="white" xmlns="http://www.w3.org/2000/svg">
<g>
<path d="M11.396 24.6547H0V23.5447C1.01133 23.5447 1.76367 23.4584 2.257 23.2857C2.775 23.113 3.12033 22.7677 3.293 22.2497C3.49033 21.7317 3.589 20.967 3.589 19.9557V4.8227C3.589 3.83604 3.49033 3.10837 3.293 2.6397C3.12033 2.14637 2.775 1.8257 2.257 1.6777C1.76367 1.5297 1.01133 1.4557 0 1.4557V0.345703H9.99C12.1853 0.345703 13.949 0.580036 15.281 1.0487C16.613 1.4927 17.575 2.14637 18.167 3.0097C18.759 3.84837 19.055 4.88437 19.055 6.1177C19.055 7.77037 18.5617 9.01604 17.575 9.8547C16.5883 10.6687 15.3303 11.2854 13.801 11.7047V11.8527C14.8617 12.0254 15.873 12.346 16.835 12.8147C17.8217 13.2834 18.6357 13.9494 19.277 14.8127C19.9183 15.6514 20.239 16.749 20.239 18.1057C20.239 20.2024 19.4497 21.818 17.871 22.9527C16.317 24.0874 14.1587 24.6547 11.396 24.6547ZM9.657 23.2857C10.4463 23.2857 11.2357 23.2364 12.025 23.1377C12.8143 23.039 13.5297 22.8294 14.171 22.5087C14.837 22.1634 15.3673 21.6577 15.762 20.9917C16.1567 20.301 16.354 19.3637 16.354 18.1797C16.354 16.7737 16.021 15.6884 15.355 14.9237C14.7137 14.1344 13.875 13.5917 12.839 13.2957C11.8277 12.975 10.7423 12.8147 9.583 12.8147H6.993V23.1747C7.437 23.1994 7.881 23.224 8.325 23.2487C8.769 23.2734 9.213 23.2857 9.657 23.2857ZM6.993 1.8997V11.2607H9.509C11.7537 11.2607 13.2953 10.8784 14.134 10.1137C14.9727 9.32437 15.392 8.09104 15.392 6.4137C15.392 4.95837 14.9233 3.8237 13.986 3.0097C13.0733 2.1957 11.4823 1.7887 9.213 1.7887C8.86767 1.7887 8.49767 1.80104 8.103 1.8257C7.733 1.8257 7.363 1.85037 6.993 1.8997Z" />
<path d="M42.6301 24.6547H22.8721V23.5447C23.8834 23.5447 24.6357 23.483 25.1291 23.3597C25.6471 23.2117 25.9924 22.9034 26.1651 22.4347C26.3624 21.966 26.4611 21.2507 26.4611 20.2887V4.8597C26.4611 3.92237 26.3624 3.20704 26.1651 2.7137C25.9924 2.22037 25.6471 1.88737 25.1291 1.7147C24.6357 1.54204 23.8834 1.4557 22.8721 1.4557V0.345703H42.2971L42.5191 6.4137H41.3351C41.1624 5.18037 40.8911 4.25537 40.5211 3.6387C40.1757 2.99737 39.5961 2.5657 38.7821 2.3437C37.9927 2.1217 36.8334 2.0107 35.3041 2.0107H29.8651V11.4087H34.1941C35.3287 11.4087 36.1921 11.31 36.7841 11.1127C37.3761 10.9154 37.7831 10.5454 38.0051 10.0027C38.2271 9.46004 38.3381 8.69537 38.3381 7.7087H39.5221V16.2927H38.3381C38.3381 15.2814 38.2271 14.529 38.0051 14.0357C37.7831 13.5424 37.3761 13.2217 36.7841 13.0737C36.1921 12.9257 35.3287 12.8517 34.1941 12.8517H29.8651V23.0267H34.6381C36.0687 23.0267 37.2157 22.965 38.0791 22.8417C38.9671 22.6937 39.6577 22.4347 40.1511 22.0647C40.6691 21.6947 41.0884 21.1644 41.4091 20.4737C41.7544 19.783 42.1121 18.8827 42.4821 17.7727H43.6661L42.6301 24.6547Z" />
<path d="M56.6892 24.6547H46.2922V23.5447C47.2295 23.5447 47.9325 23.4707 48.4012 23.3227C48.8699 23.1747 49.1782 22.854 49.3262 22.3607C49.4989 21.8674 49.5852 21.1027 49.5852 20.0667V4.1937C49.5852 3.50304 49.5112 2.96037 49.3632 2.5657C49.2399 2.17104 48.9439 1.88737 48.4752 1.7147C48.0065 1.54204 47.2789 1.4557 46.2922 1.4557V0.345703H55.3942C57.2442 0.345703 58.8845 0.530703 60.3152 0.900702C61.7705 1.24604 62.9052 1.8627 63.7192 2.7507C64.5332 3.61404 64.9402 4.83504 64.9402 6.4137C64.9402 7.79504 64.6195 8.91737 63.9782 9.7807C63.3615 10.644 62.5722 11.3224 61.6102 11.8157C60.6729 12.2844 59.6985 12.642 58.6872 12.8887V13.0367C59.1065 13.2834 59.5752 13.715 60.0932 14.3317C60.6359 14.9237 61.3265 15.8117 62.1652 16.9957C63.0039 18.155 64.1015 19.709 65.4582 21.6577C66.0502 22.4717 66.6175 22.9897 67.1602 23.2117C67.7275 23.4337 68.4305 23.5447 69.2692 23.5447V24.6547H63.1642C62.1529 23.1254 61.3019 21.855 60.6112 20.8437C59.9452 19.8077 59.3779 18.9444 58.9092 18.2537C58.4405 17.5384 58.0212 16.9094 57.6512 16.3667C57.2812 15.824 56.9112 15.2814 56.5412 14.7387C56.1712 14.1714 55.8259 13.826 55.5052 13.7027C55.2092 13.5794 54.7282 13.5177 54.0622 13.5177H53.0262V20.0667C53.0262 21.078 53.1125 21.8427 53.2852 22.3607C53.4579 22.854 53.8032 23.1747 54.3212 23.3227C54.8392 23.4707 55.6285 23.5447 56.6892 23.5447V24.6547ZM53.0262 12.0747L54.4322 12.1117C55.7889 12.0377 56.9729 11.8157 57.9842 11.4457C58.9955 11.0757 59.7849 10.496 60.3522 9.7067C60.9195 8.91737 61.2032 7.86904 61.2032 6.5617C61.2032 5.0817 60.7469 3.92237 59.8342 3.0837C58.9215 2.22037 57.4662 1.7887 55.4682 1.7887C55.0735 1.7887 54.6665 1.80104 54.2472 1.8257C53.8279 1.8257 53.4209 1.85037 53.0262 1.8997V12.0747Z" />
<path d="M81.8188 24.6547H70.4229V23.5447C71.4342 23.5447 72.1865 23.4584 72.6798 23.2857C73.1978 23.113 73.5432 22.7677 73.7159 22.2497C73.9132 21.7317 74.0118 20.967 74.0118 19.9557V4.8227C74.0118 3.83604 73.9132 3.10837 73.7159 2.6397C73.5432 2.14637 73.1978 1.8257 72.6798 1.6777C72.1865 1.5297 71.4342 1.4557 70.4229 1.4557V0.345703H80.4128C82.6082 0.345703 84.3718 0.580036 85.7038 1.0487C87.0359 1.4927 87.9978 2.14637 88.5899 3.0097C89.1819 3.84837 89.4779 4.88437 89.4779 6.1177C89.4779 7.77037 88.9845 9.01604 87.9978 9.8547C87.0112 10.6687 85.7532 11.2854 84.2239 11.7047V11.8527C85.2845 12.0254 86.2959 12.346 87.2579 12.8147C88.2445 13.2834 89.0585 13.9494 89.6999 14.8127C90.3412 15.6514 90.6618 16.749 90.6618 18.1057C90.6618 20.2024 89.8725 21.818 88.2939 22.9527C86.7399 24.0874 84.5815 24.6547 81.8188 24.6547ZM80.0798 23.2857C80.8692 23.2857 81.6585 23.2364 82.4479 23.1377C83.2372 23.039 83.9525 22.8294 84.5938 22.5087C85.2598 22.1634 85.7902 21.6577 86.1849 20.9917C86.5795 20.301 86.7768 19.3637 86.7768 18.1797C86.7768 16.7737 86.4439 15.6884 85.7779 14.9237C85.1365 14.1344 84.2979 13.5917 83.2618 13.2957C82.2505 12.975 81.1652 12.8147 80.0059 12.8147H77.4158V23.1747C77.8598 23.1994 78.3038 23.224 78.7478 23.2487C79.1918 23.2734 79.6358 23.2857 80.0798 23.2857ZM77.4158 1.8997V11.2607H79.9319C82.1765 11.2607 83.7182 10.8784 84.5569 10.1137C85.3955 9.32437 85.8148 8.09104 85.8148 6.4137C85.8148 4.95837 85.3462 3.8237 84.4089 3.0097C83.4962 2.1957 81.9052 1.7887 79.6358 1.7887C79.2905 1.7887 78.9205 1.80104 78.5258 1.8257C78.1558 1.8257 77.7859 1.85037 77.4158 1.8997Z"/>
</g>
</svg>
