<svg width="14" height="14" viewBox="0 0 14 14" fill="none" xmlns="http://www.w3.org/2000/svg">
<path id="Icon awesome-phone" d="M12.6921 1.47796L10.2102 0.905202C9.94052 0.843153 9.66369 0.983956 9.55391 1.23692L8.4084 3.90978C8.30817 4.14366 8.37499 4.4181 8.57307 4.578L10.0193 5.76169C9.16014 7.59212 7.65905 9.11469 5.79043 9.99053L4.60674 8.54433C4.44446 8.34625 4.1724 8.27943 3.93853 8.37966L1.26567 9.52517C1.01031 9.63733 0.869511 9.91417 0.93156 10.1838L1.50431 12.6658C1.56398 12.9235 1.79308 13.1097 2.06275 13.1097C8.17453 13.1097 13.136 8.15772 13.136 2.03639C13.136 1.76911 12.9523 1.53762 12.6921 1.47796Z" fill="#C6C6C7"/>
</svg>
